<?xml version="1.0" encoding="UTF-8" standalone="no"?>
<!DOCTYPE svg PUBLIC "-//W3C//DTD SVG 1.1//EN" "http://www.w3.org/Graphics/SVG/1.1/DTD/svg11.dtd">
<svg width="100%" height="100%" viewBox="0 0 1000 1000" version="1.1" xmlns="http://www.w3.org/2000/svg" xmlns:xlink="http://www.w3.org/1999/xlink" xml:space="preserve" xmlns:serif="http://www.serif.com/" style="fill-rule:evenodd;clip-rule:evenodd;stroke-linejoin:round;stroke-miterlimit:2;">
    <g transform="matrix(1.11276,0,0,1.107829,-258.902077,-93.242245)">
        <path d="M646.053,847.51L358.458,630.439C349.698,600.313 345,568.453 345,535.5C345,502.498 349.712,470.593 358.497,440.427L646.053,224.14L646.053,847.51Z" style="fill:rgb(100,190,246);"/>
    </g>
    <g transform="matrix(1.050445,0,0,1.02007,-216.403561,-45.887185)">
        <path d="M682,293.987L682,197.103L682.137,197C868.069,197.074 1019,348.722 1019,535.5C1019,722.323 867.995,874 682,874L682,779.248C815.206,779.248 923.352,670.529 923.352,536.617C923.352,402.706 815.206,293.987 682,293.987Z" style="fill:rgb(46,121,169);"/>
    </g>
    <g transform="matrix(0.662879,0,0,0.648148,132.765152,172.685185)">
        <path d="M554,235C699.706,235 818,355.983 818,505C818,654.017 699.706,775 554,775L554,235Z" style="fill:rgb(46,121,169);"/>
    </g>
</svg>
